<?xml version="1.0" encoding="utf-8"?>
<!-- Generator: Adobe Illustrator 22.1.0, SVG Export Plug-In . SVG Version: 6.00 Build 0)  -->
<svg version="1.1" id="Layer_1" xmlns="http://www.w3.org/2000/svg" xmlns:xlink="http://www.w3.org/1999/xlink" x="0px" y="0px"
	 viewBox="0 0 101 132" style="enable-background:new 0 0 101 132;" xml:space="preserve">
<style type="text/css">
	.st0{fill-rule:evenodd;clip-rule:evenodd;fill:#FFFFFF;}
	.st1{fill:#FFFFFF;}
	.st2{display:none;fill-rule:evenodd;clip-rule:evenodd;fill:#FFFFFF;}
	.st3{display:none;fill:#FFFFFF;}
</style>
<g>
	<path class="st0" d="M92.8,64.7c-0.5-3.5-2.9-4-2.4-1.3c0.5,3-2.4,6-2.5,7.2c-0.1,0.6,0.2,1.2,0.6,0.7c1.1-1.2,2.6-5.4,3.9-3.4
		c0.7,4.6,0.5,11.5-3.6,14.2c-1.2,0.8-2,1.7-2.5,2.9l0.5-8.6l0.5-8.7c0.7-1.3,2.1-1.1,2.1-1.1c-1.5-4.3-1.9-12.8-0.7-17
		c1.6-6-0.6-8.8-1.5-10.9c-0.8-1.9,2-1.8,0.6-2.5c-0.3-0.2,0.7-1.2,0.7-1.2s0.6-0.6,2,0c1.7-3-1.6-6.7-1.6-6.7l-1.5-1l-1.7-1.7
		c2.1,0.2,3.8,1.7,3.8,1.7c0.9-3.5-2.3-5.1-2.8-5.1c-0.6,0-2.4-1.3-2.4-1.3s-1.9-2-2.6-2.6c-0.8-0.6-1.5-3.1-2.8-4
		c-1.3-0.9-1.9,0-1.9,0S74.6,10,70,9.3c-2.1-0.3-3.6,0.8-5.5,0c-1.2-0.5-3.6-2-6.6-1.5c-2.6-3.7-6.6-2.9-7.2-2.8
		c-0.6-0.1-4.6-1-7.2,2.8c-3-0.6-5.4,1-6.6,1.5c-1.8,0.8-3.4-0.3-5.5,0c-4.7,0.7-6.8,5.1-6.8,5.1s-0.6-0.9-1.9,0
		c-1.3,0.9-2,3.5-2.8,4C19.4,19,17.5,21,17.5,21s-1.9,1.3-2.4,1.3c-0.6,0-3.8,1.7-2.8,5.1c0,0,1.7-1.5,3.8-1.7l-1.7,1.7l-1.5,1
		c0,0-3.4,3.6-1.6,6.7c1.4-0.6,2,0,2,0s1.1,1,0.7,1.2c-1.4,0.7,1.4,0.6,0.6,2.5c-0.9,2.1-3.1,4.9-1.5,10.9c1.1,4.2,0.7,12.8-0.7,17
		c0,0,1.3-0.2,2.1,1.1l0.5,8.7l0.5,8.6c-0.5-1.2-1.3-2.1-2.5-2.9C8.7,79.5,8.6,72.5,9.2,68c1.3-2,2.8,2.2,3.9,3.4
		c0.4,0.5,0.7-0.1,0.6-0.7c-0.1-1.1-3.1-4.2-2.5-7.2c0.5-2.7-1.9-2.3-2.4,1.3C6.5,81,10.5,82.3,11.9,87.2c0.5,1.9,2.8,1.7,3.7,1.2
		l0.1,1.1c0,0,4.2,13.7,4.7,15C22,109.2,40,125.8,44,127.3c1.6,0.5,4.2,0.8,6.8,0.7c2.5,0.1,5.2-0.2,6.8-0.7
		c4.1-1.4,22.1-18.1,23.8-22.8c0.5-1.4,4.7-15,4.7-15l0.1-1.1c0.8,0.5,3.1,0.7,3.7-1.2C91.1,82.3,95.1,81,92.8,64.7z M50.4,103.6
		c0.4-0.2,0.8,0,0.8,0c0.1,0,0.2,0.1,0.2,0.1c0,0,0.1,0,0.1,0c0,0,0.1,0,0.1,0c0.3,0,0.6-0.2,0.9-0.3c0.6-0.3,1.2-0.6,2.1-0.8
		c0.5-0.1,4.3,0.3,5.3,0.6c0.6,0.2,4,1.6,4,1.6l1.6,5c0,0,0,0,0,0.1c0,0,0,0.1,0,0.1c0,0.2-0.4,1.4-0.5,1.8c0,0.1-0.1,0.2-0.1,0.3
		c-0.1,0.2-0.1,0.4-0.2,0.5c0,0.1,0,0.1-0.1,0.2c-0.1,0.2-0.2,0.4-0.3,0.6c0,0.1-0.1,0.1-0.1,0.2c-0.3,0.6-0.4,1.1-1,1.7
		c-0.2,0.2-0.4,0.4-0.6,0.5c-0.1,0.1-0.1,0.1-0.2,0.2c-0.4,0.3-0.8,0.5-1.2,0.8c-0.1,0-0.2,0.1-0.3,0.1c-0.2,0.1-0.3,0.2-0.5,0.3
		c-0.1,0-0.2,0.1-0.3,0.1c-0.5,0.2-1,0.4-1.5,0.6c-1,0.4-1.7,0.6-1.7,0.6l-4.7,0.1l1.7-2.4l1.7-3.4l-4.9,0.8l-4.9-0.8l1.7,3.4
		l1.7,2.4l-4.7-0.1c0,0-0.7-0.2-1.7-0.6c-0.4-0.2-0.9-0.4-1.5-0.6c-0.1,0-0.2-0.1-0.3-0.1c-0.2-0.1-0.3-0.2-0.5-0.3
		c-0.1,0-0.2-0.1-0.3-0.1c-0.4-0.2-0.8-0.5-1.2-0.8c-0.1-0.1-0.2-0.1-0.2-0.2c-0.2-0.2-0.4-0.3-0.6-0.5c-0.6-0.5-0.7-1.1-1-1.7
		c0-0.1-0.1-0.1-0.1-0.2c-0.1-0.2-0.2-0.4-0.3-0.6c0-0.1-0.1-0.1-0.1-0.2c-0.1-0.2-0.1-0.4-0.2-0.5c0-0.1-0.1-0.2-0.1-0.3
		c-0.1-0.4-0.5-1.6-0.5-1.8c0,0,0-0.1,0-0.1c0,0,0-0.1,0-0.1l1.6-5c0,0,3.4-1.5,4-1.6c1-0.2,4.8-0.6,5.3-0.6
		c0.8,0.2,1.5,0.5,2.1,0.8c0.4,0.2,0.7,0.3,0.9,0.3c0,0,0.1,0,0.1,0c0,0,0.1,0,0.1,0C50.2,103.7,50.2,103.7,50.4,103.6L50.4,103.6z
		 M50,98.7c-0.7-0.4-3.9-2-6.7-1.6c-3.8,0.6-7.7,3.7-7.7,3.7L35,102l-0.2,6.6l-2.1-4.6l-4.5-2.5l-8.3-5.9l-1.4-4.4v0l-2.3-10.8
		l-0.4-13.3c0,0,1.2-5.2,2.6-7c0.4-0.5,2.1-2,2.7-3.9c0.4-1.2,0.1-3,0.3-4.5c-0.4-0.1-0.8-0.2-1-0.3c-0.1,0-0.2-0.1-0.2-0.1
		s0.1,0,0.2,0.1c0.2,0.1,0.6,0.2,1,0.3c0.1-0.8,0.4-1.6,1-2.1c1.7-1.5,2.1,1.5,0.7,2c-0.6,0.2-1.2,0.2-1.7,0.1c0,0,0,0,0,0.1
		c1.5,0.4,4,0.6,3.5-2.5c-0.6-4.4-4.1-6.2-2.5-6.7c3-1,1.1-6,5.4-5.4c6.6,1,7.9-7.3,9.2-5.8c2.3,2.7,6.8,3.2,9.2,5
		c19.3,14.2,32.8,6.2,32.8,6.2c1.6,0.5-1.9,2.3-2.5,6.7c-0.4,3.1,2,2.9,3.5,2.5c0,0,0,0,0-0.1c-0.5,0.1-1.1,0.1-1.7-0.1
		c-1.3-0.5-0.9-3.5,0.7-2c0.6,0.5,0.8,1.3,1,2.1c0.4-0.1,0.8-0.2,1-0.3c0.1,0,0.2-0.1,0.2-0.1s-0.1,0-0.2,0.1
		c-0.2,0.1-0.5,0.2-1,0.3c0.2,1.5-0.1,3.3,0.3,4.5c0.6,1.9,2.3,3.4,2.7,3.9c1.4,1.8,2.6,7,2.6,7l-0.4,13.3L83,91.2v0l-1.4,4.4
		l-8.3,5.9l-4.5,2.5l-2.1,4.6l-0.2-6.6l-0.6-1.2c0,0-3.9-3.1-7.7-3.7c-2.8-0.4-5.8,1.4-6.7,1.6C51.6,98.7,50.6,99.1,50,98.7z"/>
	<polygon class="st1" points="17.6,63.4 18.9,62.5 18.9,65.6 17.6,66 17.6,65 14.2,67.3 13.4,66.9 17.6,64 	"/>
	<polygon class="st1" points="84.2,63.3 82.9,62.4 82.9,65.4 84.2,65.8 84.2,64.9 88,66.6 88.8,66.2 84.2,63.8 	"/>
	<path class="st1" d="M61.1,59c-4.4,1-6.6,1.1-10.1,1.1c-3.5,0-5.7-0.1-10.1-1.1c-4.4-1-16.7-0.8-22.2,3.3v3.8c0,0,1.4-0.2,2.2,3.4
		c0.8,3.5,2.5,8.8,6.8,10.5c4.3,1.7,11.8,2,15.4-1c3.6-2.9,4.6-7.1,5.2-9.4c0.6-2.3,0.6-4,2.8-4c2.2,0,2.2,1.7,2.8,4
		c0.6,2.3,1.6,6.5,5.2,9.4c3.6,2.9,11.1,2.7,15.4,1c4.3-1.7,6-7,6.8-10.5c0.8-3.5,2.2-3.4,2.2-3.4v-3.8C77.9,58.2,65.5,58,61.1,59z
		 M44.3,75.3c-1.9,3.3-5.3,5.1-11.3,4.4c-6-0.7-7.1-2.3-8.6-4.8c-1.5-2.6-2.4-9.5-1.4-11.8c1-2.3,8.3-2.9,11.6-2.9
		c3.4-0.1,9.2,0.5,11.4,3.1C48.2,65.9,46.2,72.1,44.3,75.3z M77.7,74.9c-1.5,2.6-2.6,4.2-8.6,4.8c-6,0.7-9.4-1.1-11.3-4.4
		c-1.9-3.3-3.9-9.5-1.7-12.1c2.2-2.6,8-3.2,11.4-3.1c3.4,0.1,10.7,0.6,11.6,2.9C80.1,65.4,79.2,72.3,77.7,74.9z"/>
	<path class="st2" d="M50.3,80c0,0-0.6,3.7-1.8,6.5c-1.6,0.5-4.4,3.2-4.8,5.2c-0.5,3,5.3,3.8,5.3,3.8l2.2,1.6l0.6-21.4L50.3,80z"/>
	<path class="st3" d="M51.1,105.8c0,0-2.6-1.4-4.6-1.4c-2-0.1-5.8,1.2-5.8,1.2s3.7,4.7,10.4,5l0.4-2.7c0,0-1.3-0.7-4.9-0.5
		c0,0,4.5,0.5,5.1,0c0.6-0.5,1.5-1.1,1.5-1.1L51.1,105.8z"/>
</g>
</svg>
