<svg xmlns="http://www.w3.org/2000/svg" width="32.817" height="32" viewBox="0 0 32.817 32">
  <g id="XMLID_8_" transform="translate(-319.4 -622.5)">
    <g id="Group_11" data-name="Group 11" transform="translate(319.4 622.5)">
      <path id="Path_54" data-name="Path 54" d="M352.217,628.3V648.7a5.791,5.791,0,0,1-5.8,5.8H325.2a5.791,5.791,0,0,1-5.8-5.8V628.3a5.791,5.791,0,0,1,5.8-5.8h21.211a5.6,5.6,0,0,1,4.107,1.7A5.521,5.521,0,0,1,352.217,628.3Zm-1.369,19.862V628.814A4.847,4.847,0,0,0,349.4,625.3a4.735,4.735,0,0,0-3.515-1.451H325.714A4.847,4.847,0,0,0,322.2,625.3a4.78,4.78,0,0,0-1.451,3.535v19.331a4.953,4.953,0,0,0,4.966,4.966h20.169a4.671,4.671,0,0,0,3.474-1.43A4.8,4.8,0,0,0,350.848,648.165Z" transform="translate(-319.4 -622.5)" fill="#d392ff"/>
      <path id="Path_55" data-name="Path 55" d="M356.1,634.145V653.5a4.939,4.939,0,0,1-1.471,3.556,4.736,4.736,0,0,1-3.474,1.43H330.966a4.847,4.847,0,0,1-3.515-1.451A4.767,4.767,0,0,1,326,653.517V634.186a4.893,4.893,0,0,1,1.451-3.535,4.767,4.767,0,0,1,3.515-1.451h20.169a4.953,4.953,0,0,1,4.966,4.945Zm-4.884,11.443a6.129,6.129,0,0,0,.123-1.43,5.653,5.653,0,0,0-.388-2.043,4.018,4.018,0,0,0-1.267-1.757,3.6,3.6,0,0,0-2.329-.715,3.9,3.9,0,0,0-3.372,1.7,7,7,0,0,0-1.185,4.107,7.493,7.493,0,0,0,.49,2.738,4.483,4.483,0,0,0,1.553,2.064,4.84,4.84,0,0,0,2.861.776,6.143,6.143,0,0,0,2.718-.511c.061-.041.1-.061.123-.1a.385.385,0,0,0,.041-.163v-1.676c0-.061-.02-.1-.041-.1a.13.13,0,0,0-.123,0,5.593,5.593,0,0,1-2.207.429,2.811,2.811,0,0,1-2.248-.838,3.4,3.4,0,0,1-.715-2.207l3.535.02a15.293,15.293,0,0,0,2.248-.1.175.175,0,0,0,.123-.061Zm-9.134,5.231c.1,0,.123-.061.1-.163l-4.291-14.549c-.02-.061-.02-.1-.041-.1a.153.153,0,0,0-.1-.02h-2.861c-.061,0-.1.041-.1.123-.02.327-.041.552-.061.715a1.083,1.083,0,0,1-.1.388l-3.821,13.4a.218.218,0,0,0,0,.163.173.173,0,0,0,.123.041h1.982c.061,0,.123,0,.143-.041a.332.332,0,0,0,.061-.123l1.063-4.026h4.332l1.124,4.046a.216.216,0,0,0,.225.123h2.227Z" transform="translate(-324.651 -627.831)" fill="#19003e"/>
      <path id="Path_56" data-name="Path 56" d="M415.885,689.309v1.7a.22.22,0,0,1-.041.164.209.209,0,0,1-.123.1,6.143,6.143,0,0,1-2.718.511,4.84,4.84,0,0,1-2.861-.777,4.482,4.482,0,0,1-1.553-2.064,7.573,7.573,0,0,1-.49-2.738,7,7,0,0,1,1.185-4.107,3.854,3.854,0,0,1,3.372-1.7,3.527,3.527,0,0,1,2.329.715,4.018,4.018,0,0,1,1.267,1.757,5.653,5.653,0,0,1,.388,2.043,6.012,6.012,0,0,1-.123,1.43.124.124,0,0,1-.061.123.332.332,0,0,1-.123.061,15.284,15.284,0,0,1-2.248.1l-3.535-.02a3.4,3.4,0,0,0,.715,2.207,2.718,2.718,0,0,0,2.248.838,5.593,5.593,0,0,0,2.207-.429.13.13,0,0,1,.123,0C415.865,689.207,415.885,689.248,415.885,689.309Zm-1.573-4.761c0-.041.02-.061.02-.082a2.7,2.7,0,0,0-.143-.858,2.093,2.093,0,0,0-.531-.858,1.479,1.479,0,0,0-1.083-.368,1.607,1.607,0,0,0-1.451.695,3.3,3.3,0,0,0-.531,1.635h3.453c.143,0,.225,0,.245-.02A.348.348,0,0,0,414.312,684.548Z" transform="translate(-389.975 -668.569)" fill="#d392ff"/>
      <path id="Path_57" data-name="Path 57" d="M424.039,692.184a.123.123,0,0,1-.02.082.3.3,0,0,0-.02.143c-.02.02-.1.02-.245.02H420.3a3.771,3.771,0,0,1,.531-1.635,1.607,1.607,0,0,1,1.451-.695,1.512,1.512,0,0,1,1.083.368,2.094,2.094,0,0,1,.531.858A2.886,2.886,0,0,1,424.039,692.184Z" transform="translate(-399.682 -676.286)" fill="#19003e"/>
      <path id="Path_58" data-name="Path 58" d="M360.822,677.151c.041.1,0,.163-.1.163h-2.227a.235.235,0,0,1-.225-.123l-1.124-4.046h-4.332l-1.063,4.026a.123.123,0,0,1-.061.123.238.238,0,0,1-.143.041h-1.982a.173.173,0,0,1-.123-.041c-.02-.02-.02-.082,0-.163l3.821-13.4a1.781,1.781,0,0,0,.1-.388c.02-.143.041-.388.061-.715,0-.082.041-.123.1-.123h2.861c.061,0,.082,0,.1.02s.02.061.041.1Zm-5.783-6.192h1.594c-.123-.531-.307-1.206-.531-2.023-.2-.776-.409-1.553-.613-2.35s-.368-1.451-.49-1.982h-.041c-.307,1.471-.736,3.229-1.287,5.252l-.307,1.1h1.676Z" transform="translate(-343.29 -654.326)" fill="#d392ff"/>
      <path id="Path_59" data-name="Path 59" d="M372.049,679.155H368.8q.153-.521.306-1.1c.552-2.023.981-3.78,1.287-5.252h.041c.123.531.286,1.185.49,1.982s.409,1.573.613,2.35C371.743,677.949,371.926,678.624,372.049,679.155Z" transform="translate(-358.706 -662.522)" fill="#19003e"/>
    </g>
  </g>
</svg>
