<svg xmlns="http://www.w3.org/2000/svg" width="32.838" height="32" viewBox="0 0 32.838 32">
  <g id="XMLID_2_" transform="translate(-73.4 -422.1)">
    <g id="Group_7" data-name="Group 7" transform="translate(73.4 422.1)">
      <path id="Path_33" data-name="Path 33" d="M106.238,427.9V448.3a5.791,5.791,0,0,1-5.8,5.8H79.2a5.791,5.791,0,0,1-5.8-5.8V427.9a5.791,5.791,0,0,1,5.8-5.8h21.211a5.6,5.6,0,0,1,4.107,1.7A5.539,5.539,0,0,1,106.238,427.9Zm-1.39,19.862V428.414A4.847,4.847,0,0,0,103.4,424.9a4.735,4.735,0,0,0-3.515-1.451H79.714A4.847,4.847,0,0,0,76.2,424.9a4.78,4.78,0,0,0-1.451,3.535v19.331a4.954,4.954,0,0,0,4.966,4.966H99.883a4.749,4.749,0,0,0,3.494-1.43A4.857,4.857,0,0,0,104.848,447.765Z" transform="translate(-73.4 -422.1)" fill="#ff7e1b"/>
      <path id="Path_34" data-name="Path 34" d="M110.1,433.745V453.1a4.938,4.938,0,0,1-1.471,3.556,4.749,4.749,0,0,1-3.494,1.43H84.966a4.847,4.847,0,0,1-3.515-1.451A4.767,4.767,0,0,1,80,453.117V433.786a4.893,4.893,0,0,1,1.451-3.535,4.767,4.767,0,0,1,3.515-1.451h20.169a4.813,4.813,0,0,1,3.515,1.451A4.69,4.69,0,0,1,110.1,433.745Zm-6.253,17.819V439.61q0-.215-.184-.184h-2.37q-.215,0-.184.184l.02,11.934c0,.123.061.184.2.2h2.329a.264.264,0,0,0,.163-.041C103.826,451.666,103.847,451.625,103.847,451.564Zm.184-15.387c0-.92-.511-1.43-1.553-1.553a1.637,1.637,0,0,0-1.1.409,1.436,1.436,0,0,0-.45,1.144,1.389,1.389,0,0,0,1.512,1.553,1.615,1.615,0,0,0,1.124-.409A1.448,1.448,0,0,0,104.031,436.177Zm-5.292,15.571c.123,0,.163-.061.1-.2L94.018,435.2c-.02-.061-.02-.1-.041-.123a.173.173,0,0,0-.123-.041H90.687c-.082,0-.123.041-.123.143-.02.347-.02.633-.041.8a3.174,3.174,0,0,1-.1.47l-4.291,15.04a.541.541,0,0,0,0,.184c.02.041.061.061.163.061H88.5a.219.219,0,0,0,.245-.163l1.206-4.557h4.822L96,451.564a.231.231,0,0,0,.245.143h2.493Z" transform="translate(-78.651 -427.431)" fill="#41322a"/>
      <path id="Path_35" data-name="Path 35" d="M186.023,480.9v11.954c0,.061,0,.1-.02.123-.02.041-.061.041-.163.041h-2.33c-.123-.02-.2-.082-.2-.2l-.02-11.934q-.031-.184.184-.184h2.37C185.962,480.7,186.023,480.761,186.023,480.9Z" transform="translate(-160.828 -468.726)" fill="#ff7e1b"/>
      <path id="Path_36" data-name="Path 36" d="M184.033,457.3c1.022.1,1.553.633,1.553,1.553a1.436,1.436,0,0,1-.45,1.144,1.652,1.652,0,0,1-1.124.409,1.389,1.389,0,0,1-1.512-1.553,1.436,1.436,0,0,1,.45-1.144A1.463,1.463,0,0,1,184.033,457.3Z" transform="translate(-160.206 -450.107)" fill="#ff7e1b"/>
      <path id="Path_37" data-name="Path 37" d="M122.571,475.97c.061.143.02.2-.1.2h-2.513a.231.231,0,0,1-.245-.143l-1.226-4.557h-4.822l-1.206,4.557a.188.188,0,0,1-.082.123.264.264,0,0,1-.163.041H110c-.082,0-.143-.02-.163-.061a.276.276,0,0,1,0-.184l4.291-15.04a2.326,2.326,0,0,0,.1-.47,7.208,7.208,0,0,0,.041-.8c.02-.1.061-.143.123-.143h3.167c.061,0,.1,0,.123.041a.173.173,0,0,1,.041.123Zm-8.317-6.948h3.576c-.143-.531-.307-1.206-.511-2.023-.245-.9-.49-1.819-.715-2.759-.245-.94-.429-1.716-.552-2.37h-.041c-.163.94-.409,2.043-.756,3.351C114.928,466.55,114.581,467.8,114.254,469.022Z" transform="translate(-102.382 -451.858)" fill="#ff7e1b"/>
      <path id="Path_38" data-name="Path 38" d="M135.176,478.332H131.6c.327-1.226.674-2.473,1-3.78s.593-2.411.756-3.351h.041c.143.633.327,1.43.552,2.37.245.94.49,1.839.715,2.759C134.869,477.126,135.033,477.8,135.176,478.332Z" transform="translate(-119.707 -461.167)" fill="#41322a"/>
    </g>
  </g>
</svg>
