<svg xmlns="http://www.w3.org/2000/svg" xmlns:xlink="http://www.w3.org/1999/xlink" width="32" height="32" viewBox="0 0 32 32">
  <defs>
    <linearGradient id="linear-gradient" x1="0.5" y1="0.04" x2="0.5" y2="1" gradientUnits="objectBoundingBox">
      <stop offset="0" stop-color="#fdfdfd"/>
      <stop offset="1" stop-color="#cbcbcb"/>
    </linearGradient>
    <linearGradient id="linear-gradient-2" x1="0.5" y1="0.04" x2="0.5" y2="1" gradientUnits="objectBoundingBox">
      <stop offset="0" stop-color="#b2e198"/>
      <stop offset="1" stop-color="#04a171"/>
    </linearGradient>
  </defs>
  <g id="atom-4" transform="translate(-0.142 -0.142)">
    <circle id="Ellipse_1" data-name="Ellipse 1" cx="16" cy="16" r="16" transform="translate(0.142 0.142)" fill="url(#linear-gradient)"/>
    <circle id="Ellipse_2" data-name="Ellipse 2" cx="14.63" cy="14.63" r="14.63" transform="translate(1.495 1.53)" fill="url(#linear-gradient-2)"/>
    <path id="Path_78" data-name="Path 78" d="M52.4,59.858q-.256.4-.5.8-.256-.7-.461-1.424.7-.1,1.486-.156-.269.386-.526.781Zm12.907.935a7.306,7.306,0,0,0-2.2-1.352,21.486,21.486,0,0,0-7.045-1.451q-.471-.025-.942-.035c2.042-2.438,4.015-3.735,5.164-3.779a1.024,1.024,0,0,1,.607.143c.538.349.687,1.433.4,2.9a.534.534,0,1,0,1.048.206c.495-2.52-.2-3.566-.865-4a2.067,2.067,0,0,0-1.23-.314c-1.767.067-4.243,1.951-6.5,4.856a22.75,22.75,0,0,0-2.563.229q-.129-.591-.2-1.192c-.2-1.67.046-2.855.665-3.171a.857.857,0,0,1,.332-.089,3.564,3.564,0,0,1,2.2,1.046.534.534,0,1,0,.682-.822,4.4,4.4,0,0,0-2.957-1.289,1.929,1.929,0,0,0-.737.2,2.383,2.383,0,0,0-1.168,1.668,7.331,7.331,0,0,0-.072,2.582c.049.4.12.82.212,1.251a13.086,13.086,0,0,0-1.739.484c-2.292.828-2.821,1.919-2.861,2.689-.039.735.338,1.83,2.349,2.867a.534.534,0,1,0,.489-.949c-1.157-.6-1.8-1.275-1.773-1.862.043-.827,1.429-1.7,3.788-2.194a22.634,22.634,0,0,0,.836,2.441,19.076,19.076,0,0,0-1.788,4.557,7.317,7.317,0,0,0-.2,2.574,2.381,2.381,0,0,0,.986,1.78,2.041,2.041,0,0,0,1.136.319A5.235,5.235,0,0,0,54.273,69.9a.534.534,0,1,0-.62-.869c-1.242.886-2.309,1.2-2.855.848-.582-.378-.7-1.582-.328-3.22a16.894,16.894,0,0,1,1.3-3.53q.2.425.411.842a21.516,21.516,0,0,0,4.191,5.852A7.316,7.316,0,0,0,58.5,71.278a3.008,3.008,0,0,0,1.132.247,1.96,1.96,0,0,0,.9-.211,2.343,2.343,0,0,0,1.146-1.585,6.9,6.9,0,0,0,.118-2.442,20.567,20.567,0,0,0-2.012-6.494.534.534,0,1,0-.962.463A19.489,19.489,0,0,1,60.736,67.4c.159,1.558-.1,2.667-.687,2.967-.618.315-1.721-.18-2.951-1.325a20.438,20.438,0,0,1-3.968-5.555q-.392-.769-.732-1.562.423-.755.894-1.481t.986-1.418l.265,0c.459,0,.95.011,1.463.038a20.41,20.41,0,0,1,6.682,1.367c1.544.658,2.444,1.465,2.408,2.159-.031.589-.747,1.2-1.964,1.671a.534.534,0,1,0,.386,1c2.115-.821,2.605-1.873,2.644-2.611a2.382,2.382,0,0,0-.859-1.845Z" transform="translate(-39.702 -45.957)" fill="#f2f8f6"/>
    <path id="Path_79" data-name="Path 79" d="M119.194,120.97a1.167,1.167,0,1,0,1.167-1.168,1.167,1.167,0,0,0-1.167,1.168" transform="translate(-104.154 -104.686)" fill="#f1f8f3"/>
  </g>
</svg>
