<svg xmlns="http://www.w3.org/2000/svg" width="22.671" height="32" viewBox="0 0 22.671 32">
  <g id="html-5" transform="translate(-0.445)">
    <path id="Path_90" data-name="Path 90" d="M23.116,70.766,21.051,93.9l-9.284,2.574-9.258-2.57L.445,70.766H23.116Z" transform="translate(0 -64.477)" fill="#e44d26"/>
    <path id="Path_91" data-name="Path 91" d="M128,113.909l7.5-2.08,1.765-19.772H128Z" transform="translate(-116.22 -83.876)" fill="#f16529"/>
    <path id="Path_92" data-name="Path 92" d="M51.019,126.833h4.015V124H47.917l.068.761.7,7.821h6.351v-2.838H51.278Zm.64,7.164H48.809l.4,4.456,5.814,1.614.013,0V137.11l-.012,0-3.161-.853Z" transform="translate(-43.253 -112.976)" fill="#ebebeb"/>
    <path id="Path_93" data-name="Path 93" d="M24.18,0h1.442V1.425h1.319V0h1.442V4.315H26.942V2.87H25.622V4.315H24.18V0Zm6.1,1.431h-1.27V0h3.982V1.431h-1.27V4.315H30.281V1.431h0ZM33.626,0h1.5l.925,1.516L36.979,0h1.5V4.315H37.047V2.176l-.992,1.534H36.03l-.993-1.534V4.315H33.626ZM39.2,0h1.443V2.889h2.028V4.315H39.2V0Z" transform="translate(-21.626)"/>
    <path id="Path_94" data-name="Path 94" d="M127.889,132.578h3.495l-.33,3.681-3.165.854v2.953l5.818-1.612.043-.48.667-7.472.069-.762h-6.6Zm0-5.751v.007h6.855l.057-.638.129-1.439L135,124h-7.11v2.831Z" transform="translate(-116.118 -112.976)" fill="#fff"/>
  </g>
</svg>
