<svg xmlns="http://www.w3.org/2000/svg" viewBox="0 0 27.66 39.04"><defs><style>.cls-1{fill:#e44d26;}.cls-2{fill:#f16529;}.cls-3{fill:#ebebeb;}.cls-4{fill:#fff;}</style></defs><g id="Layer_2" data-name="Layer 2"><g id="Layer_1-2" data-name="Layer 1"><g id="html-5"><path id="Path_90" data-name="Path 90" class="cls-1" d="M27.66,7.67,25.14,35.9,13.81,39,2.52,35.9,0,7.67Z"/><path id="Path_91" data-name="Path 91" class="cls-2" d="M13.83,36.64,23,34.11,25.13,10H13.83Z"/><path id="Path_92" data-name="Path 92" class="cls-3" d="M8.93,16.91h4.9V13.45H5.15l.08.93.85,9.54h7.75V20.46H9.25Zm.78,8.74H6.24l.48,5.44,7.1,2h0v-3.6h0l-3.86-1Z"/><path id="Path_93" data-name="Path 93" d="M2.57,0H4.33V1.74H5.94V0H7.7V5.26H5.94V3.5H4.33V5.26H2.57ZM10,1.75H8.47V0h4.86V1.75H11.78V5.26H10V1.75ZM14.1,0h1.83l1.13,1.85L18.19,0H20V5.26H18.27V2.66L17.06,4.53h0L15.82,2.66v2.6H14.1Zm6.8,0h1.76V3.52h2.47V5.26H20.9Z"/><path id="Path_94" data-name="Path 94" class="cls-4" d="M13.82,23.92h4.26l-.4,4.49-3.86,1v3.6l7.1-2,0-.59.81-9.12.09-.93h-8Zm0-7h8.36l.07-.78.16-1.76.09-.92H13.82V16.9Z"/></g></g></g></svg>