<svg id="invision" xmlns="http://www.w3.org/2000/svg" width="32" height="32" viewBox="0 0 32 32">
  <path id="Path_76" data-name="Path 76" d="M29.1,0H2.9A2.9,2.9,0,0,0,0,2.9V29.1A2.9,2.9,0,0,0,2.9,32H29.1A2.9,2.9,0,0,0,32,29.1V2.9A2.9,2.9,0,0,0,29.1,0" fill="#dc395f"/>
  <path id="Path_77" data-name="Path 77" d="M51.548,53.58a1.926,1.926,0,1,0-1.955-1.927,1.932,1.932,0,0,0,1.955,1.927M47.495,63.9a6.616,6.616,0,0,0-.173,1.447A2.579,2.579,0,0,0,50.2,68.165a4.575,4.575,0,0,0,3.882-2.517L53.5,67.966h3.219l1.84-7.38c.46-1.868,1.351-2.838,2.7-2.838A1.609,1.609,0,0,1,62.988,59.5a3.444,3.444,0,0,1-.144,1.035L61.9,63.929a5.1,5.1,0,0,0-.2,1.437,2.624,2.624,0,0,0,2.932,2.788c1.7,0,3.047-1.092,3.795-3.708l-1.265-.488c-.633,1.753-1.179,2.07-1.61,2.07s-.661-.287-.661-.862a3.814,3.814,0,0,1,.144-.892l.92-3.3a7.288,7.288,0,0,0,.316-2.1c0-2.472-1.5-3.763-3.306-3.763-1.7,0-3.421,1.53-4.283,3.14l.632-2.89H54.392l-.69,2.545H56l-1.416,5.67a3.606,3.606,0,0,1-3.411,2.455c-.421-.1-.69-.255-.69-.8a5.421,5.421,0,0,1,.2-1.316l2.156-8.553H47.38l-.69,2.546h2.271L47.495,63.9" transform="translate(-40.854 -43.512)" fill="#fff"/>
</svg>
