<svg xmlns="http://www.w3.org/2000/svg" width="32.838" height="32" viewBox="0 0 32.838 32">
  <g id="XMLID_3_" transform="translate(-73.4 -622.5)">
    <g id="Group_10" data-name="Group 10" transform="translate(73.4 622.5)">
      <path id="Path_49" data-name="Path 49" d="M106.238,628.3V648.7a5.791,5.791,0,0,1-5.8,5.8H79.2a5.791,5.791,0,0,1-5.8-5.8V628.3a5.791,5.791,0,0,1,5.8-5.8h21.211a5.6,5.6,0,0,1,4.107,1.7A5.539,5.539,0,0,1,106.238,628.3Zm-1.39,19.862V628.814A4.847,4.847,0,0,0,103.4,625.3a4.735,4.735,0,0,0-3.515-1.451H79.714A4.847,4.847,0,0,0,76.2,625.3a4.78,4.78,0,0,0-1.451,3.535v19.331a4.953,4.953,0,0,0,4.966,4.966H99.883a4.749,4.749,0,0,0,3.494-1.43A4.857,4.857,0,0,0,104.848,648.165Z" transform="translate(-73.4 -622.5)" fill="#37c5ff"/>
      <path id="Path_50" data-name="Path 50" d="M110.1,634.145V653.5a4.938,4.938,0,0,1-1.471,3.556,4.749,4.749,0,0,1-3.494,1.43H84.966a4.847,4.847,0,0,1-3.515-1.451A4.767,4.767,0,0,1,80,653.517V634.186a4.893,4.893,0,0,1,1.451-3.535,4.767,4.767,0,0,1,3.515-1.451h20.169a4.813,4.813,0,0,1,3.515,1.451A4.69,4.69,0,0,1,110.1,634.145Zm-6.069,13.609a3.432,3.432,0,0,0-.633-2,6.172,6.172,0,0,0-2.289-1.655,5.549,5.549,0,0,1-1.451-.92.946.946,0,0,1,0-1.43,1.618,1.618,0,0,1,1.165-.347,4.7,4.7,0,0,1,2.473.654c.143.02.225-.041.225-.163v-1.941a.45.45,0,0,0-.02-.163.367.367,0,0,0-.1-.143,5.787,5.787,0,0,0-2.575-.388,3.894,3.894,0,0,0-2.881,1,3.115,3.115,0,0,0-1.022,2.35,3.173,3.173,0,0,0,.674,2.064A6.106,6.106,0,0,0,99.8,646.2a5.132,5.132,0,0,1,1.41.94,1.183,1.183,0,0,1,.368.776.95.95,0,0,1-.388.8,2,2,0,0,1-1.226.307,5.507,5.507,0,0,1-2.84-.858c-.123-.061-.163-.02-.163.123v2.125c0,.061,0,.1.02.123a.144.144,0,0,0,.1.082,5.559,5.559,0,0,0,2.9.633,4.715,4.715,0,0,0,2.943-.9A3.186,3.186,0,0,0,104.031,647.754Zm-9.3-4.536a5.032,5.032,0,0,0,.8-2.963,5.155,5.155,0,0,0-1.267-3.515c-.838-.96-2.248-1.43-4.209-1.43-1.41,0-2.636.02-3.658.061a.726.726,0,0,0-.2.041c-.082.041-.1.082-.1.143V650.86c0,.123.041.164.143.143h2.186c.143,0,.2-.061.163-.143v-5.476a3.179,3.179,0,0,1,.47.02,5.784,5.784,0,0,0,.674.02,7.91,7.91,0,0,0,2.922-.531A4.546,4.546,0,0,0,94.733,643.218Z" transform="translate(-78.651 -627.831)" fill="#28253a"/>
      <path id="Path_51" data-name="Path 51" d="M169.162,681.2c0,.123-.061.184-.225.163a4.753,4.753,0,0,0-2.473-.654,1.617,1.617,0,0,0-1.165.347.946.946,0,0,0,0,1.43,6.386,6.386,0,0,0,1.451.92,6.173,6.173,0,0,1,2.289,1.655,3.251,3.251,0,0,1,.633,2,3.1,3.1,0,0,1-1.165,2.616,4.715,4.715,0,0,1-2.943.9,5.559,5.559,0,0,1-2.9-.633.144.144,0,0,1-.1-.082.259.259,0,0,1-.02-.123v-2.1c0-.123.061-.163.163-.123a5.562,5.562,0,0,0,2.84.858,1.925,1.925,0,0,0,1.226-.307.95.95,0,0,0,.388-.8,1.226,1.226,0,0,0-.368-.776,5.645,5.645,0,0,0-1.41-.94,6.367,6.367,0,0,1-2.207-1.533,3.335,3.335,0,0,1,.347-4.414,4.012,4.012,0,0,1,2.881-1,5.907,5.907,0,0,1,2.575.388.313.313,0,0,1,.1.143.4.4,0,0,1,.02.163v1.9Z" transform="translate(-144.293 -667.136)" fill="#37c5ff"/>
      <path id="Path_52" data-name="Path 52" d="M119.081,664.045a5.076,5.076,0,0,1-.8,2.963,4.552,4.552,0,0,1-2.125,1.676,7.989,7.989,0,0,1-2.922.531,5.784,5.784,0,0,1-.674-.02,3.179,3.179,0,0,0-.47-.02v5.476c.041.1-.02.143-.163.143h-2.186c-.1.02-.143-.02-.143-.143V659.345c0-.061.041-.1.1-.143a.4.4,0,0,1,.2-.041c1.022-.041,2.248-.061,3.658-.061,1.962,0,3.372.47,4.209,1.43A4.963,4.963,0,0,1,119.081,664.045Zm-2.554.041a2.518,2.518,0,0,0-.8-2.043,3.371,3.371,0,0,0-2.227-.674,12.656,12.656,0,0,0-1.369.061v5.5c.163,0,.327.02.49.02h.674a4.381,4.381,0,0,0,2.248-.572A2.433,2.433,0,0,0,116.527,664.086Z" transform="translate(-102.203 -651.621)" fill="#37c5ff"/>
      <path id="Path_53" data-name="Path 53" d="M125.6,670.795a2.546,2.546,0,0,1,.8,2.043,2.418,2.418,0,0,1-.981,2.268,4.535,4.535,0,0,1-2.248.572h-.674a3.935,3.935,0,0,1-.49-.02v-5.5a12.4,12.4,0,0,1,1.369-.061A3.377,3.377,0,0,1,125.6,670.795Z" transform="translate(-112.069 -660.373)" fill="#28253a"/>
    </g>
  </g>
</svg>
