<svg xmlns="http://www.w3.org/2000/svg" width="32.838" height="32" viewBox="0 0 32.838 32">
  <g id="XMLID_12_" transform="translate(-565.2 -622.4)">
    <g id="Group_12" data-name="Group 12" transform="translate(565.2 622.4)">
      <path id="Path_60" data-name="Path 60" d="M592.234,622.4a5.791,5.791,0,0,1,5.8,5.8V648.6a5.791,5.791,0,0,1-5.8,5.8H571.024a5.791,5.791,0,0,1-5.824-5.8V628.2a5.791,5.791,0,0,1,5.824-5.8Zm4.434,25.686V628.735a4.847,4.847,0,0,0-1.451-3.515,4.735,4.735,0,0,0-3.515-1.451H571.535a4.847,4.847,0,0,0-3.515,1.451,4.78,4.78,0,0,0-1.451,3.535v19.331a4.953,4.953,0,0,0,4.966,4.966h20.189a4.671,4.671,0,0,0,3.474-1.43A4.857,4.857,0,0,0,596.669,648.086Z" transform="translate(-565.2 -622.4)" fill="#ff2bc2"/>
      <path id="Path_61" data-name="Path 61" d="M602,634.145V653.5a4.938,4.938,0,0,1-1.471,3.556,4.736,4.736,0,0,1-3.474,1.43H576.866a4.847,4.847,0,0,1-3.515-1.451,4.767,4.767,0,0,1-1.451-3.515V634.186a4.893,4.893,0,0,1,1.451-3.535,4.767,4.767,0,0,1,3.515-1.451h20.169A4.953,4.953,0,0,1,602,634.145Zm-4.9,15.734v-.1c-.041-.511-.061-.96-.061-1.328V635.943c0-.041,0-.061-.02-.082a.153.153,0,0,0-.1-.02H594.7a.106.106,0,0,0-.082.041.156.156,0,0,0-.041.1v3.556a2.233,2.233,0,0,0-.347-.02h-.368a4.962,4.962,0,0,0-3.964,1.655,5.94,5.94,0,0,0-1.451,4.026,5.516,5.516,0,0,0,1.43,4.169,5.013,5.013,0,0,0,3.658,1.369,8.5,8.5,0,0,0,3.494-.8C597.055,649.92,597.1,649.9,597.1,649.88Zm-9.461.674a.242.242,0,0,0-.02-.164l-3.842-7.418,3.617-6.927c.061-.143.02-.2-.082-.2H585.08a.238.238,0,0,0-.143.041.187.187,0,0,0-.082.123v.02q-.337.7-.674,1.471c-.613,1.308-1.226,2.616-1.819,3.944h-.041c-.613-1.349-1.226-2.677-1.859-3.985-.225-.49-.47-.981-.695-1.451a.332.332,0,0,0-.061-.123.3.3,0,0,0-.143-.02h-2.37a.112.112,0,0,0-.1.061.173.173,0,0,0,0,.143l3.617,7.172-3.739,7.193a.172.172,0,0,0-.041.143c.02.041.041.061.123.061h2.268a.283.283,0,0,0,.245-.143c.9-1.859,1.757-3.739,2.6-5.64h.02c.92,1.941,1.819,3.821,2.677,5.619a.261.261,0,0,0,.1.143.408.408,0,0,0,.184.041h2.391C587.573,650.615,587.614,650.595,587.634,650.554Z" transform="translate(-570.531 -627.811)" fill="#2e001e"/>
      <path id="Path_62" data-name="Path 62" d="M661.464,675.636v.1c0,.02-.041.041-.082.061a8.5,8.5,0,0,1-3.494.8,5.013,5.013,0,0,1-3.658-1.369,5.6,5.6,0,0,1-1.43-4.169,5.806,5.806,0,0,1,1.451-4.026,4.99,4.99,0,0,1,3.964-1.655h.368c.1,0,.225.02.347.02v-3.556a.142.142,0,0,1,.123-.143h2.207c.061,0,.1,0,.1.02.02.02.02.041.02.082v12.506C661.4,674.676,661.423,675.125,661.464,675.636Zm-2.534-1.328.02-6.764a2.139,2.139,0,0,0-.8-.143c-1.921.143-2.881,1.308-2.881,3.515a3.925,3.925,0,0,0,.776,2.718,2.563,2.563,0,0,0,1.941.817A3,3,0,0,0,658.93,674.308Z" transform="translate(-634.9 -653.669)" fill="#ff2bc2"/>
      <path id="Path_63" data-name="Path 63" d="M668.4,689.743l-.02,6.764a2.954,2.954,0,0,1-.96.143,2.563,2.563,0,0,1-1.941-.817,3.925,3.925,0,0,1-.776-2.718c0-2.207.96-3.372,2.881-3.515A1.833,1.833,0,0,1,668.4,689.743Z" transform="translate(-644.368 -675.868)" fill="#2e001e"/>
      <path id="Path_64" data-name="Path 64" d="M607.076,675.99a.164.164,0,0,1,.02.163.112.112,0,0,1-.1.061H604.6a.407.407,0,0,1-.184-.041.261.261,0,0,1-.1-.143c-.858-1.8-1.757-3.678-2.677-5.619h-.02c-.838,1.9-1.716,3.76-2.6,5.64a.267.267,0,0,1-.245.143h-2.289a.124.124,0,0,1-.123-.061c-.02-.041,0-.082.041-.143l3.739-7.193-3.617-7.172c-.041-.061-.041-.1,0-.143a.112.112,0,0,1,.1-.061H599c.061,0,.123,0,.143.02a.123.123,0,0,1,.061.123c.225.47.47.96.695,1.451.633,1.308,1.246,2.636,1.859,3.985h.041c.593-1.328,1.185-2.636,1.819-3.944.225-.49.47-.981.674-1.471v-.02a.314.314,0,0,1,.082-.123.3.3,0,0,1,.143-.041h2.227c.1,0,.143.061.082.2l-3.6,6.989Z" transform="translate(-589.993 -653.431)" fill="#ff2bc2"/>
    </g>
  </g>
</svg>
